<?xml version="1.0" standalone="no"?>
<!DOCTYPE svg PUBLIC "-//W3C//DTD SVG 20010904//EN"
 "http://www.w3.org/TR/2001/REC-SVG-20010904/DTD/svg10.dtd">
<svg version="1.0" xmlns="http://www.w3.org/2000/svg"
 width="30.000000pt" height="30.000000pt" viewBox="0 0 30.000000 30.000000"
 preserveAspectRatio="xMidYMid meet">
<metadata>
Created by potrace 1.10, written by Peter Selinger 2001-2011
</metadata>
<g transform="translate(0.000000,30.000000) scale(0.100000,-0.100000)"
fill="#000000" stroke="none">
<path d="M150 229 c-14 -11 -49 -31 -77 -45 -56 -27 -61 -37 -38 -68 16 -22
20 -10 5 14 -13 20 7 30 38 19 14 -6 31 -8 39 -5 21 8 15 -12 -7 -24 -24 -13
-14 -50 20 -67 25 -12 54 -7 44 9 -8 13 44 67 79 81 l29 12 -29 31 c-15 18
-39 39 -53 47 -23 15 -27 14 -50 -4z m43 -36 c-3 -8 3 -13 13 -14 18 -1 18 -2
0 -6 -15 -4 -16 -7 -5 -15 10 -7 8 -8 -9 -5 -19 5 -21 3 -11 -9 11 -14 10 -15
-11 -18 -6 0 -15 -8 -21 -16 -7 -11 -9 -1 -7 35 3 54 7 61 36 61 12 0 18 -5
15 -13z"/>
</g>
</svg>
